<svg xmlns="http://www.w3.org/2000/svg" viewBox="0 0 1024 1024"
     width="16" height="16" fill-rule="evenodd">
    <path d="M810.666667 213.333333H419.413333a128 128 0 0 0-90.453333 37.546667l-231.253333 230.826667a42.666667 42.666667 0 0 0 0 60.586666l231.253333 230.826667a128 128 0 0 0 90.453333 37.546667H810.666667a128 128 0 0 0 128-128V341.333333a128 128 0 0 0-128-128z m42.666666 469.333334a42.666667 42.666667 0 0 1-42.666666 42.666666H419.413333a44.8 44.8 0 0 1-30.293333-12.373333L188.16 512l200.96-200.96A44.8 44.8 0 0 1 419.413333 298.666667H810.666667a42.666667 42.666667 0 0 1 42.666666 42.666666z m-140.373333-286.293334a42.666667 42.666667 0 0 0-60.586667 0L597.333333 451.84l-55.04-55.466667a42.666667 42.666667 0 0 0-60.586666 60.586667l55.466666 55.04-55.466666 55.04a42.666667 42.666667 0 0 0 0 60.586667 42.666667 42.666667 0 0 0 60.586666 0l55.04-55.466667 55.04 55.466667a42.666667 42.666667 0 0 0 60.586667 0 42.666667 42.666667 0 0 0 0-60.586667L657.493333 512l55.466667-55.04a42.666667 42.666667 0 0 0 0-60.586667z"
          fill="#6E6E6E"/>
</svg>