<?xml version="1.0" standalone="no"?>
<!DOCTYPE svg PUBLIC "-//W3C//DTD SVG 20010904//EN"
 "http://www.w3.org/TR/2001/REC-SVG-20010904/DTD/svg10.dtd">
<svg version="1.0" xmlns="http://www.w3.org/2000/svg"
 viewBox="0 0 2600.000000 2600.000000"
 preserveAspectRatio="xMidYMid meet">
<metadata>
Created by potrace 1.15, written by Peter Selinger 2001-2017
</metadata>
<g transform="translate(0.000000,2600.000000) scale(0.100000,-0.100000)"
fill="#000000" stroke="none">
<path fill="#FFFFFF" d="M7058 21254 c-180 -43 -316 -178 -375 -369 -17 -58 -18 -318 -18
-7895 l0 -7835 26 -77 c34 -99 76 -163 149 -232 66 -60 137 -98 220 -115 42
-9 1504 -11 5965 -9 l5910 3 57 23 c133 54 245 172 297 315 l26 72 3 7825 c2
7106 1 7832 -13 7897 -45 205 -205 367 -399 402 -43 8 -1752 11 -5925 10
-4964 -1 -5875 -3 -5923 -15z m10397 -2203 c53 -25 103 -76 129 -131 21 -45
21 -48 24 -1420 2 -961 -1 -1391 -9 -1427 -15 -77 -63 -141 -128 -175 l-53
-28 -4424 0 c-3732 0 -4430 2 -4458 14 -51 21 -107 76 -132 131 l-24 50 0
1395 c0 930 4 1407 10 1432 17 59 69 120 129 151 l55 27 4420 0 c4285 0 4422
-1 4461 -19z m-7510 -4672 c56 -30 83 -57 113 -114 l27 -50 3 -619 c3 -689 3
-686 -63 -763 -19 -23 -54 -51 -78 -62 -42 -21 -55 -21 -628 -21 -546 0 -587
2 -624 19 -56 26 -92 62 -120 123 l-25 53 0 630 0 630 24 51 c28 60 66 99 121
125 38 17 74 19 625 19 576 0 586 0 625 -21z m2450 0 c56 -30 83 -57 113 -114
l27 -50 3 -619 c3 -689 3 -686 -63 -763 -19 -23 -54 -51 -78 -62 -42 -21 -55
-21 -628 -21 -650 0 -625 -2 -697 70 -71 71 -67 23 -67 755 0 732 -4 684 67
755 72 72 47 70 698 70 576 0 586 0 625 -21z m2450 0 c56 -30 83 -57 113 -114
l27 -50 3 -620 c2 -553 1 -625 -14 -672 -20 -65 -70 -125 -127 -152 -42 -21
-56 -21 -628 -21 l-585 0 -51 25 c-28 15 -63 42 -78 60 -58 77 -56 49 -53 753
3 717 -1 671 70 742 72 72 47 70 698 70 576 0 586 0 625 -21z m2450 0 c55 -29
78 -52 111 -112 l29 -52 0 -640 0 -640 -27 -50 c-30 -57 -57 -84 -113 -114
-39 -21 -49 -21 -625 -21 l-586 0 -51 25 c-28 15 -63 42 -78 60 -58 77 -56 49
-53 753 3 717 -1 671 70 742 72 72 47 70 698 70 576 0 586 0 625 -21z m-7332
-2752 c52 -31 100 -95 117 -157 6 -21 10 -276 10 -642 0 -582 -1 -609 -20
-661 -21 -56 -72 -113 -130 -143 -33 -18 -72 -19 -599 -22 -621 -3 -630 -2
-703 58 -20 16 -48 53 -62 82 l-26 52 0 635 c0 618 1 637 21 681 27 60 64 98
124 126 l50 24 585 -2 585 -3 48 -28z m2408 19 c56 -20 103 -61 135 -118 l29
-53 0 -645 c0 -610 -1 -647 -19 -680 -26 -49 -74 -98 -121 -123 -39 -22 -48
-22 -604 -25 -621 -3 -630 -2 -703 58 -20 16 -48 53 -62 82 l-26 52 0 635 c0
618 1 637 21 681 27 60 64 98 124 126 l50 24 570 -1 c438 0 578 -3 606 -13z
m2450 0 c56 -20 103 -61 135 -118 l29 -53 3 -619 c2 -538 1 -626 -13 -673 -18
-62 -69 -124 -129 -156 -41 -22 -48 -22 -605 -25 -621 -3 -630 -2 -703 58 -20
16 -48 53 -62 82 l-26 52 0 635 c0 618 1 637 21 681 27 60 64 98 124 126 l50
24 570 -1 c438 0 578 -3 606 -13z m2475 -8 c47 -26 95 -77 118 -128 l21 -45 0
-2005 0 -2005 -28 -57 c-15 -31 -43 -68 -62 -83 -75 -56 -57 -55 -672 -55
-344 0 -582 4 -604 10 -51 14 -118 76 -145 134 l-24 51 0 2005 c0 1996 1 2005
21 2050 27 60 64 98 124 126 l50 24 585 -2 c532 -3 588 -5 616 -20z m-7356
-2742 c58 -30 109 -87 130 -143 19 -52 20 -79 20 -661 0 -382 -4 -621 -10
-644 -18 -65 -70 -130 -129 -160 l-53 -28 -577 0 -576 0 -50 24 c-59 27 -106
77 -129 137 -15 40 -16 108 -14 685 l3 641 30 48 c35 57 92 100 150 114 23 5
274 9 605 8 530 -2 567 -3 600 -21z m2450 0 c58 -30 109 -87 130 -143 19 -52
20 -79 20 -661 0 -382 -4 -621 -10 -644 -18 -65 -70 -130 -129 -160 l-53 -28
-570 0 c-404 0 -582 3 -609 12 -55 16 -118 73 -145 132 l-24 51 0 636 0 637
28 52 c15 29 44 66 64 83 69 55 81 56 698 54 529 -2 567 -3 600 -21z m2456 -3
c22 -12 57 -40 77 -62 67 -74 67 -74 67 -745 0 -378 -4 -615 -10 -638 -18 -65
-70 -130 -129 -160 l-53 -28 -572 0 c-346 0 -585 4 -607 10 -51 14 -118 76
-145 134 l-24 51 0 636 0 637 28 52 c15 29 44 66 64 83 69 55 81 56 698 54
559 -2 565 -2 606 -24z"/>
<path fill="#FFFFFF" d="M15674 18506 c-45 -20 -102 -74 -127 -120 l-22 -41 -3 -943 c-2 -634
1 -956 8 -982 16 -60 68 -121 129 -152 l55 -28 502 0 502 0 53 28 c59 30 111
95 129 160 6 24 10 362 10 958 0 1014 3 970 -62 1048 -17 21 -54 49 -82 62
l-51 24 -505 0 c-400 -1 -511 -4 -536 -14z m746 -1126 l0 -610 -205 0 -205 0
0 610 0 610 205 0 205 0 0 -610z"/>
</g>
</svg>
